<?xml version="1.0" encoding="utf-8"?>
<!-- Generator: Adobe Illustrator 16.0.0, SVG Export Plug-In . SVG Version: 6.00 Build 0)  -->
<!DOCTYPE svg PUBLIC "-//W3C//DTD SVG 1.1//EN" "http://www.w3.org/Graphics/SVG/1.1/DTD/svg11.dtd">
<svg version="1.1" id="Capa_1" xmlns="http://www.w3.org/2000/svg" xmlns:xlink="http://www.w3.org/1999/xlink" x="0px" y="0px"
	 width="32px" height="32px" viewBox="0 0 32 32" enable-background="new 0 0 32 32" xml:space="preserve">
<g>
	<path fill="#75EA9C" d="M26.521,20.247c0,0-5.303-0.353-7.424-2.474c-2.122-2.122,0.353-4.598,0.353-4.598s2.475-2.475,4.598-0.352
		C26.168,14.945,26.521,20.247,26.521,20.247z"/>
</g>
<g>
	<path fill="#75EA9C" d="M8.843,11.055c0,0,0.353,5.303,2.474,7.424c2.122,2.123,4.597-0.353,4.597-0.353s2.475-2.475,0.353-4.597
		C14.146,11.408,8.843,11.055,8.843,11.055z"/>
</g>
<g>
	<path fill="#75EA9C" d="M17.328,2.57c0,0,0.354,5.303,2.475,7.424s4.596-0.354,4.596-0.354s2.476-2.475,0.354-4.597
		C22.631,2.923,17.328,2.57,17.328,2.57z"/>
</g>
<g>
	<path fill="#75EA9C" d="M18.035,28.732c0,0-5.303-0.353-7.424-2.474c-2.122-2.122,0.353-4.597,0.353-4.597s2.475-2.475,4.597-0.354
		C17.682,23.43,18.035,28.732,18.035,28.732z"/>
</g>
<path d="M20.004,16.865"/>
<path fill="#4D5152" d="M3.186,30.854c-0.195,0.195-0.512,0.195-0.707,0l0,0c-0.195-0.195-0.195-0.512,0-0.707L24.027,8.594
	c0.195-0.195,0.512-0.195,0.707,0l-0.188-0.303c0.195,0.195,0.048,1.154-0.147,1.35L3.186,30.854z"/>
<path fill="#4D5152" d="M15.914,18.126c0.195-0.195,0.195-0.512,0-0.707l-2.122-2.122c-0.195-0.195-0.512-0.195-0.707,0l0,0
	c-0.196,0.196-0.195,0.512,0,0.707l2.122,2.122C15.402,18.321,15.718,18.322,15.914,18.126L15.914,18.126z"/>
<path fill="#4D5152" d="M13.792,24.49c0.195-0.195,0.195-0.512,0-0.707l-2.121-2.121c-0.195-0.195-0.512-0.195-0.707,0l0,0
	c-0.196,0.195-0.195,0.512,0,0.707l2.121,2.121C13.281,24.686,13.597,24.686,13.792,24.49L13.792,24.49z"/>
<path fill="#4D5152" d="M22.277,16.004c0.195-0.195,0.195-0.512,0-0.707l-2.121-2.121c-0.195-0.195-0.512-0.195-0.707,0l0,0
	c-0.195,0.196-0.195,0.513,0,0.708l2.121,2.121C21.766,16.2,22.082,16.2,22.277,16.004L22.277,16.004z"/>
<path fill="#4D5152" d="M21.57,6.813c0.195-0.195,0.512-0.195,0.707,0l2.122,2.121c0.195,0.195,0.195,0.512-0.001,0.707l0,0
	c-0.195,0.195-0.512,0.195-0.707,0L21.57,7.52C21.375,7.324,21.375,7.008,21.57,6.813L21.57,6.813z"/>
<g>
	<path fill="#4D5152" d="M22.116,12.964L22.116,12.964c0.441,0,0.842,0.186,1.224,0.567c1.188,1.189,1.798,3.836,2.05,5.586
		c-1.749-0.251-4.394-0.859-5.586-2.051c-1.331-1.331,0.063-2.888,0.35-3.18C20.414,13.63,21.277,12.964,22.116,12.964
		 M22.116,11.964c-1.455,0-2.667,1.212-2.667,1.212s-2.475,2.476-0.353,4.598c2.121,2.121,7.424,2.474,7.424,2.474
		s-0.353-5.302-2.474-7.423C23.409,12.187,22.74,11.964,22.116,11.964L22.116,11.964z"/>
</g>
<g>
	<path fill="#4D5152" d="M9.974,12.186c1.75,0.253,4.397,0.862,5.586,2.051c1.33,1.331-0.063,2.888-0.353,3.183
		c-0.239,0.238-1.111,0.92-1.96,0.92c-0.441,0-0.841-0.186-1.223-0.567C10.835,16.583,10.227,13.937,9.974,12.186 M8.843,11.055
		c0,0,0.353,5.303,2.474,7.424c0.637,0.637,1.306,0.86,1.93,0.86c1.455,0,2.667-1.213,2.667-1.213s2.475-2.475,0.353-4.597
		C14.146,11.408,8.843,11.055,8.843,11.055L8.843,11.055z"/>
</g>
<g>
	<path fill="#4D5152" d="M18.459,3.7c1.749,0.251,4.394,0.859,5.586,2.051c1.33,1.331-0.063,2.887-0.351,3.179
		c-0.262,0.257-1.124,0.923-1.964,0.923c-0.44,0-0.84-0.185-1.221-0.566C19.321,8.098,18.712,5.451,18.459,3.7 M17.328,2.57
		c0,0,0.354,5.303,2.475,7.424c0.637,0.636,1.305,0.859,1.928,0.859c1.455,0,2.668-1.212,2.668-1.212s2.476-2.475,0.354-4.597
		C22.631,2.923,17.328,2.57,17.328,2.57L17.328,2.57z"/>
</g>
<g>
	<path fill="#4D5152" d="M13.633,21.449L13.633,21.449c0.44,0,0.84,0.186,1.221,0.566c1.188,1.188,1.797,3.836,2.05,5.587
		c-1.749-0.251-4.394-0.859-5.586-2.051c-1.331-1.331,0.063-2.887,0.353-3.183C11.91,22.131,12.783,21.45,13.633,21.449
		 M13.632,20.449c-1.455,0.001-2.668,1.213-2.668,1.213s-2.475,2.475-0.353,4.597c2.121,2.121,7.424,2.474,7.424,2.474
		s-0.354-5.303-2.474-7.424C14.924,20.672,14.256,20.449,13.632,20.449L13.632,20.449z"/>
</g>
</svg>
