<?xml version="1.0" encoding="utf-8"?>
<!-- Generator: Adobe Illustrator 16.0.0, SVG Export Plug-In . SVG Version: 6.00 Build 0)  -->
<!DOCTYPE svg PUBLIC "-//W3C//DTD SVG 1.1//EN" "http://www.w3.org/Graphics/SVG/1.1/DTD/svg11.dtd">
<svg version="1.1" id="Capa_1" xmlns="http://www.w3.org/2000/svg" xmlns:xlink="http://www.w3.org/1999/xlink" x="0px" y="0px"
	 width="32px" height="32px" viewBox="0 0 32 32" enable-background="new 0 0 32 32" xml:space="preserve">
<path fill="#75EA9C" d="M28.12,5.26l-3.7,5.52C24.32,10.92,24.17,11,24,11h-7c-0.28,0-0.5-0.22-0.5-0.5S16.72,10,17,10h2.15
	l-2.69-4.84l-4.03,6.6c-0.08,0.12-0.2,0.21-0.34,0.23C12.06,12,12.03,12,12,12c-0.11,0-0.22-0.04-0.31-0.11l-5-4
	C6.48,7.73,6.44,7.44,6.58,7.22l4-6C10.68,1.08,10.83,1,11,1h11c0.18,0,0.34,0.1,0.43,0.25l3.301,5.77l1.56-2.32
	c0.15-0.23,0.46-0.29,0.69-0.14C28.21,4.72,28.27,5.03,28.12,5.26"/>
<path fill="#75EA9C" d="M16.208,21.573l-0.793,6.354c-0.034,0.241-0.239,0.427-0.479,0.434l-0.04-0.001l-7.199-0.269
	c-0.171-0.007-0.324-0.104-0.407-0.239l-2.091-3.417c-0.01,0.001-0.011-0.019-0.011-0.019L1.54,18.468
	c-0.093-0.146-0.098-0.336-0.013-0.5l3.179-5.784L1.92,12.026c-0.271-0.013-0.486-0.247-0.464-0.518
	c0.013-0.28,0.257-0.486,0.518-0.474l6.853,0.369c0.17,0.016,0.322,0.102,0.406,0.249l3.445,5.86
	c0.146,0.236,0.064,0.55-0.172,0.685c-0.079,0.044-0.159,0.065-0.249,0.067c-0.17,0.005-0.341-0.08-0.437-0.238l-1.1-1.872
	L7.97,21.03l7.742-0.024c0.15,0.006,0.283,0.063,0.375,0.169C16.188,21.285,16.234,21.432,16.208,21.573"/>
<path fill="#75EA9C" d="M31.823,18.265l-1.944,3.472l-3.418,6.129c-0.086,0.151-0.258,0.254-0.43,0.256l-6.654,0.064l1.27,2.492
	c0.125,0.245,0.031,0.547-0.214,0.67c-0.085,0.042-0.187,0.061-0.276,0.052c-0.17-0.02-0.318-0.114-0.393-0.274l-3.023-5.919
	c-0.073-0.147-0.063-0.328,0.01-0.472l1.944-3.471l0.003-0.021l1.47-2.617c0.136-0.246,0.438-0.336,0.685-0.197
	c0.238,0.136,0.326,0.438,0.188,0.685l-1.048,1.878l5.541,0.004l-3.799-6.735c-0.066-0.129-0.082-0.271-0.036-0.406
	c0.044-0.136,0.147-0.247,0.283-0.302l5.923-2.418c0.243-0.094,0.523,0.006,0.639,0.24l3.291,6.418
	C31.908,17.943,31.911,18.113,31.823,18.265"/>
<path fill="#4D5152" d="M27.98,4.56c-0.23-0.15-0.54-0.09-0.69,0.14l-1.56,2.32L22.43,1.25C22.34,1.1,22.18,1,22,1H11
	c-0.17,0-0.32,0.08-0.42,0.22l-4,6c-0.14,0.22-0.1,0.51,0.11,0.67l5,4C11.78,11.96,11.89,12,12,12c0.03,0,0.06,0,0.09-0.01
	c0.14-0.02,0.26-0.11,0.34-0.23l4.03-6.6L19.15,10H17c-0.28,0-0.5,0.22-0.5,0.5S16.72,11,17,11h7c0.17,0,0.32-0.08,0.42-0.22
	l3.7-5.52C28.27,5.03,28.21,4.72,27.98,4.56 M11.87,10.75L7.67,7.4l3.6-5.4h3.43l1.2,2.15L11.87,10.75z M23.73,10H20.3l-4.45-8h5.86
	L25,7.76c0.03,0.06,0.08,0.11,0.14,0.15L23.73,10z"/>
<path fill="#4D5152" d="M16.086,21.175c-0.092-0.105-0.224-0.163-0.375-0.169L7.97,21.03l2.752-4.875l1.1,1.872
	c0.095,0.158,0.267,0.243,0.437,0.238c0.09-0.002,0.169-0.023,0.249-0.067c0.236-0.135,0.318-0.448,0.172-0.685l-3.445-5.86
	c-0.084-0.147-0.236-0.233-0.406-0.249l-6.853-0.369c-0.261-0.013-0.505,0.193-0.518,0.474c-0.022,0.271,0.193,0.505,0.464,0.518
	l2.785,0.157l-3.179,5.784c-0.085,0.164-0.081,0.354,0.013,0.5l3.648,5.948c0,0,0.001,0.02,0.011,0.019l2.091,3.417
	c0.083,0.136,0.236,0.232,0.407,0.239l7.199,0.269l0.04,0.001c0.24-0.007,0.445-0.192,0.479-0.434l0.793-6.354
	C16.234,21.432,16.188,21.285,16.086,21.175 M2.544,18.191l3.188-5.815c0.029-0.041,0.047-0.092,0.046-0.131l2.725,0.148
	l1.633,2.778l-4.531,8.021L2.544,18.191z M14.479,27.341L8,27.102l-1.798-2.934l1.203-2.142l7.743-0.016L14.479,27.341z"/>
<path fill="#4D5152" d="M31.834,17.792l-3.291-6.418c-0.115-0.234-0.396-0.334-0.639-0.24l-5.923,2.418
	c-0.136,0.055-0.239,0.166-0.283,0.302c-0.046,0.136-0.03,0.277,0.036,0.406l3.799,6.735l-5.541-0.004l-0.551,0.996l9.141,0.021
	l0.855,0.003c0.191,0,0.354-0.114,0.441-0.275l1.944-3.472C31.911,18.113,31.908,17.943,31.834,17.792 M29.144,21.004L26.679,21
	l-3.798-6.738l4.986-2.026l2.959,5.771L29.144,21.004z"/>
<path fill="#4D5152" d="M29.879,21.736l-3.418,6.129c-0.086,0.151-0.258,0.254-0.43,0.256l-6.654,0.064l1.27,2.492
	c0.125,0.245,0.031,0.547-0.214,0.67c-0.085,0.042-0.187,0.061-0.276,0.052c-0.17-0.02-0.318-0.114-0.393-0.274l-3.023-5.919
	c-0.073-0.147-0.063-0.328,0.01-0.472l1.944-3.471l0.003-0.021l1.47-2.617c0.136-0.246,0.438-0.336,0.685-0.197
	c0.238,0.136,0.326,0.438,0.188,0.685l-1.048,1.878l-0.551,0.996l-1.682,3.007l1.137,2.236c0.063-0.023,0.125-0.037,0.195-0.04
	l6.635-0.068l2.855-5.113l0.855,0.003C29.629,22.012,29.791,21.897,29.879,21.736"/>
</svg>
