<svg version="1" xmlns="http://www.w3.org/2000/svg" width="682.667" height="682.667" viewBox="0 0 512.000000 512.000000"><path d="M154.6 6.8c-2.1 3.7-8.1 14.1-13.3 23.1-5.1 9.1-9.2 16.9-9 17.5.4.9 100.5 59.2 173.6 101.2 51.9 29.7 145.9 83.9 147.7 85.1 2.1 1.3 2.5.8 10.7-13.4 4.6-8.1 10-17.5 11.8-20.8 1.8-3.3 4.1-7.3 5.2-8.8 1-1.6 1.8-3 1.6-3.1-.2-.2-18.2-10.6-39.9-23.1-21.7-12.6-39.9-23.1-40.3-23.6-.5-.4-3-8.6-5.6-18.3-2.6-9.7-5.1-18-5.6-18.5-.6-.5-6.4-4.1-13-7.9-6.6-3.8-32.3-18.7-57.2-33L276.1 37l-16.3 4.5c-9 2.5-17.4 4.5-18.8 4.5-2.2 0-75.8-41.1-80.1-44.7-.8-.7-1.7-1.3-2-1.3-.2 0-2.1 3.1-4.3 6.8zM94 299.8c0 162.5 0 163.8 2.1 171.2 5.4 19.5 17.3 32.4 35.8 38.7l6.6 2.2 116.6.1c113.2 0 116.9-.1 123-2 18.7-5.7 32.9-21.1 37.4-40.4 1.3-5.5 1.5-22 1.3-116.3l-.3-109.8-11-6.3c-15.5-9.1-154.7-89.5-171.1-98.9l-4.1-2.3H94v163.8zm192.1-27.7c6.2 2.8 10.7 7.8 16.5 18 3 5.4 6 9.9 6.6 9.9.7 0 4.3-1.8 8.1-4.1 3.8-2.2 7-3.9 7.2-3.7.1.1-5.4 9.6-12.2 21L299.7 334H282c-9.7 0-20.5.3-23.9.6-3.4.4-6.1.3-6.1-.2s3.2-2.7 7-4.8c3.9-2.2 7-4.4 7-4.9 0-1.3-12.3-22.7-13-22.7-.3.1-4.5 7.3-9.5 16.2-4.9 8.8-9.7 17-10.6 18.1-1.5 1.9-2.1 1.7-22-9.8-11.2-6.4-20.5-11.8-20.7-12-.2-.1 4.4-8.3 10.1-18.1 11.4-19.6 15.2-23.6 23.9-25.4 2.4-.5 16.5-.8 31.3-.7 22.3.2 27.6.5 30.6 1.8zm57.4 80.9l10 17.4v15.1l-13 23c-14.2 25-20.1 32.4-27.1 34.4-2.1.6-9.4 1.1-16.1 1.1h-12.2l-.3 9.2-.3 9.3-11.8-21.3-11.9-21.3 11.2-20.2c6.1-11.1 11.6-20.6 12.1-21.2.5-.5.9 2.7.9 8.3v9.2h12.9c7.2 0 13.2-.3 13.4-.8.2-.4-4.2-8.6-9.9-18.2-5.6-9.6-10.2-17.8-10.1-18.2.3-1.3 39.1-23.6 40.7-23.5.8.1 6 8.1 11.5 17.7zm-135.9-13.5c.8.2 18 28.1 25.2 40.9.3.5-2.9-1-7-3.2-4.2-2.3-7.9-4.2-8.4-4.2-.9 0-13.4 21-13.4 22.3 0 .4 9.5.7 21 .7h21v48h-20.8c-20.4 0-20.9-.1-26-2.6-2.8-1.4-6.4-4.2-8-6.2-1.6-2-8.7-13.8-15.8-26.2l-12.9-22.5v-17l6.2-10.5c3.4-5.7 6-10.7 5.7-11.1-.2-.4-3.3-2.4-6.9-4.3-3.5-2-6.7-4-6.9-4.5-.5-.8 44.3-.4 47 .4z"/></svg>